<svg xmlns="http://www.w3.org/2000/svg" width="19" height="18" viewBox="0 0 19 18">
  <metadata><?xpacket begin="﻿" id="W5M0MpCehiHzreSzNTczkc9d"?>
<x:xmpmeta xmlns:x="adobe:ns:meta/" x:xmptk="Adobe XMP Core 5.6-c142 79.160924, 2017/07/13-01:06:39        ">
   <rdf:RDF xmlns:rdf="http://www.w3.org/1999/02/22-rdf-syntax-ns#">
      <rdf:Description rdf:about=""/>
   </rdf:RDF>
</x:xmpmeta>
                                                                                                    
                                                                                                    
                                                                                                    
                                                                                                    
                                                                                                    
                                                                                                    
                                                                                                    
                                                                                                    
                                                                                                    
                                                                                                    
                                                                                                    
                                                                                                    
                                                                                                    
                                                                                                    
                                                                                                    
                                                                                                    
                                                                                                    
                                                                                                    
                                                                                                    
                                                                                                    
                           
<?xpacket end="w"?></metadata>
<defs>
    <style>
      .cls-1 {
        fill: #fff;
        fill-rule: evenodd;
      }
    </style>
  </defs>
  <path id="icon" class="cls-1" d="M822.476,2954.46a2,2,0,0,0-.049-0.44c-0.032-.14-0.066-0.27-0.1-0.38a1.376,1.376,0,0,0-.19-0.38c-0.09-.13-0.166-0.24-0.227-0.33a2.514,2.514,0,0,0-.286-0.32c-0.13-.12-0.229-0.21-0.3-0.27s-0.184-.16-0.346-0.28-0.274-.2-0.336-0.25-0.18-.12-0.356-0.25-0.287-.19-0.331-0.22a3.911,3.911,0,0,0-.54-0.02,8.67,8.67,0,0,0-1.147.07,6.716,6.716,0,0,0-1.168.27,4.317,4.317,0,0,0-1.06.5,2.354,2.354,0,0,0-.747.81,2.437,2.437,0,0,0,.092,2.47,2.687,2.687,0,0,0,1.006.91,5.565,5.565,0,0,0,1.3.49,5.821,5.821,0,0,0,1.374.17,5.345,5.345,0,0,0,1.217-.14,4.141,4.141,0,0,0,1.087-.42,2.135,2.135,0,0,0,.806-0.8A2.3,2.3,0,0,0,822.476,2954.46Zm-1.3-9.32a5.913,5.913,0,0,0-.178-1.38,6.919,6.919,0,0,0-.509-1.41,3.1,3.1,0,0,0-.909-1.13,2.1,2.1,0,0,0-1.292-.44,1.821,1.821,0,0,0-1.558.75,2.893,2.893,0,0,0-.552,1.78,4.91,4.91,0,0,0,.125,1.07,5.586,5.586,0,0,0,.384,1.13,5.407,5.407,0,0,0,.606,1.01,2.8,2.8,0,0,0,.843.73,2.077,2.077,0,0,0,1.05.28,1.739,1.739,0,0,0,1.52-.66A2.886,2.886,0,0,0,821.178,2945.14Zm-1.417-5.14h4.727l-1.46.85h-1.46a3.251,3.251,0,0,1,1.189,1.37,4.132,4.132,0,0,1,.422,1.83,3.824,3.824,0,0,1-.249,1.42,3.167,3.167,0,0,1-.6,1c-0.238.25-.476,0.48-0.714,0.7a4.03,4.03,0,0,0-.606.66,1.2,1.2,0,0,0-.249.73,1,1,0,0,0,.179.55,2.662,2.662,0,0,0,.465.52c0.191,0.16.4,0.34,0.632,0.52s0.462,0.38.693,0.6a6.155,6.155,0,0,1,.633.71,3.254,3.254,0,0,1,.465.92,3.626,3.626,0,0,1,.178,1.15,3.945,3.945,0,0,1-1.514,3.05,6.708,6.708,0,0,1-4.543,1.42,8.159,8.159,0,0,1-1.293-.11,6.628,6.628,0,0,1-1.32-.36,4.963,4.963,0,0,1-1.174-.63,2.959,2.959,0,0,1-.832-0.96,2.657,2.657,0,0,1-.325-1.31,3.379,3.379,0,0,1,.4-1.47,3.252,3.252,0,0,1,1.039-1.19,5.177,5.177,0,0,1,1.568-.77,12.986,12.986,0,0,1,1.677-.39,12.482,12.482,0,0,1,1.622-.14,2.776,2.776,0,0,1-.692-1.62,1.508,1.508,0,0,1,.022-0.25,1.229,1.229,0,0,1,.054-0.21c0.022-.06.05-0.14,0.086-0.23a2.108,2.108,0,0,0,.076-0.24,5.6,5.6,0,0,1-.757.06,3.97,3.97,0,0,1-2.764-1.06,3.477,3.477,0,0,1-1.152-2.66,4.032,4.032,0,0,1,1.028-2.71,4.539,4.539,0,0,1,2.531-1.53A9.331,9.331,0,0,1,819.761,2940ZM832,2943v1h-3v3h-1v-3h-3v-1h3v-3h1v3h3Z" transform="translate(-813 -2940)"/>
</svg>
