<svg xmlns="http://www.w3.org/2000/svg" width="20" height="20" viewBox="0 0 20 20">
  <metadata><?xpacket begin="﻿" id="W5M0MpCehiHzreSzNTczkc9d"?>
<x:xmpmeta xmlns:x="adobe:ns:meta/" x:xmptk="Adobe XMP Core 5.6-c142 79.160924, 2017/07/13-01:06:39        ">
   <rdf:RDF xmlns:rdf="http://www.w3.org/1999/02/22-rdf-syntax-ns#">
      <rdf:Description rdf:about=""/>
   </rdf:RDF>
</x:xmpmeta>
                                                                                                    
                                                                                                    
                                                                                                    
                                                                                                    
                                                                                                    
                                                                                                    
                                                                                                    
                                                                                                    
                                                                                                    
                                                                                                    
                                                                                                    
                                                                                                    
                                                                                                    
                                                                                                    
                                                                                                    
                                                                                                    
                                                                                                    
                                                                                                    
                                                                                                    
                                                                                                    
                           
<?xpacket end="w"?></metadata>
<defs>
    <style>
      .cls-1 {
        fill: #fff;
        fill-rule: evenodd;
      }
    </style>
  </defs>
  <path id="icon" class="cls-1" d="M787,2948a9.79,9.79,0,0,1-1.341,5.02,10.017,10.017,0,0,1-3.639,3.64,9.975,9.975,0,0,1-7.858.92,7.976,7.976,0,0,0,1.015-2.13c0.078-.3.313-1.21,0.7-2.75a2.183,2.183,0,0,0,.951.88,3.056,3.056,0,0,0,1.484.37,4.721,4.721,0,0,0,2.813-.89,5.784,5.784,0,0,0,1.914-2.46,8.738,8.738,0,0,0,.677-3.51,5.37,5.37,0,0,0-.775-2.79,5.86,5.86,0,0,0-2.246-2.12,6.669,6.669,0,0,0-3.32-.82,8.411,8.411,0,0,0-2.552.38,6.542,6.542,0,0,0-2.012,1,6.96,6.96,0,0,0-1.419,1.44,5.842,5.842,0,0,0-.873,1.69,5.671,5.671,0,0,0-.28,1.74,5.189,5.189,0,0,0,.521,2.38,2.939,2.939,0,0,0,1.524,1.45,0.328,0.328,0,0,0,.494-0.26c0.018-.06.053-0.2,0.1-0.41s0.087-.33.105-0.39a0.6,0.6,0,0,0-.144-0.56,2.952,2.952,0,0,1-.664-1.96,4.753,4.753,0,0,1,4.922-4.8,4.229,4.229,0,0,1,3.067,1.07,3.7,3.7,0,0,1,1.1,2.78,7.43,7.43,0,0,1-.892,3.76,2.625,2.625,0,0,1-2.285,1.55,1.587,1.587,0,0,1-1.276-.57,1.473,1.473,0,0,1-.3-1.36c0.07-.3.185-0.71,0.345-1.22s0.291-.95.391-1.34a3.966,3.966,0,0,0,.15-0.98,1.66,1.66,0,0,0-.352-1.08,1.211,1.211,0,0,0-1-.43,1.675,1.675,0,0,0-1.367.74,2.993,2.993,0,0,0-.559,1.85,3.505,3.505,0,0,0,.325,1.59l-1.289,5.44a8.641,8.641,0,0,0-.169,2.31,9.96,9.96,0,0,1-4.336-3.66,10.034,10.034,0,0,1-.313-10.53,10.02,10.02,0,0,1,3.64-3.64,10.071,10.071,0,0,1,10.039,0,10.017,10.017,0,0,1,3.639,3.64A9.79,9.79,0,0,1,787,2948Z" transform="translate(-767 -2938)"/>
</svg>
