<svg xmlns="http://www.w3.org/2000/svg" width="18" height="22" viewBox="0 0 18 22">
  <metadata><?xpacket begin="﻿" id="W5M0MpCehiHzreSzNTczkc9d"?>
<x:xmpmeta xmlns:x="adobe:ns:meta/" x:xmptk="Adobe XMP Core 5.6-c142 79.160924, 2017/07/13-01:06:39        ">
   <rdf:RDF xmlns:rdf="http://www.w3.org/1999/02/22-rdf-syntax-ns#">
      <rdf:Description rdf:about=""/>
   </rdf:RDF>
</x:xmpmeta>
                                                                                                    
                                                                                                    
                                                                                                    
                                                                                                    
                                                                                                    
                                                                                                    
                                                                                                    
                                                                                                    
                                                                                                    
                                                                                                    
                                                                                                    
                                                                                                    
                                                                                                    
                                                                                                    
                                                                                                    
                                                                                                    
                                                                                                    
                                                                                                    
                                                                                                    
                                                                                                    
                           
<?xpacket end="w"?></metadata>
<defs>
    <style>
      .cls-1 {
        fill: #fff;
        fill-rule: evenodd;
      }
    </style>
  </defs>
  <path id="icon" class="cls-1" d="M907.112,2936.13h-1.234l-0.832,3.23-0.866-3.23H902.9c0.257,0.77.525,1.53,0.782,2.3a20,20,0,0,1,.745,2.6v3.33h1.22v-3.33l1.468-4.9m1.633,2.03a1.481,1.481,0,0,0-1.279.62,2.41,2.41,0,0,0-.344,1.45v2.14a2.41,2.41,0,0,0,.344,1.45,1.634,1.634,0,0,0,2.563,0,2.434,2.434,0,0,0,.341-1.45v-2.14a2.434,2.434,0,0,0-.341-1.45,1.485,1.485,0,0,0-1.284-.62m5.692,0.07h-1.1v4.68a0.958,0.958,0,0,1-.694.52,0.248,0.248,0,0,1-.258-0.26,2.419,2.419,0,0,1-.014-0.43v-4.51h-1.1v4.85a3.134,3.134,0,0,0,.1.91,0.669,0.669,0,0,0,.708.45,1.746,1.746,0,0,0,1.256-.75v0.67h1.1v-6.13m-5.692,5.2c-0.353,0-.524-0.28-0.524-0.85v-2.57c0-.57.171-0.86,0.524-0.86s0.526,0.29.526,0.86v2.57c0,0.57-.171.85-0.526,0.85m-1.633-7.3h0m0-.13h-1.233l-0.832,3.23-0.865-3.23H902.9c0.257,0.76.525,1.53,0.782,2.29a20.667,20.667,0,0,1,.746,2.6v3.33h1.219v-3.33Zm3.26,6.24v-2.15a2.427,2.427,0,0,0-.341-1.44,1.619,1.619,0,0,0-2.564,0,2.4,2.4,0,0,0-.345,1.44v2.15a2.4,2.4,0,0,0,.345,1.44,1.619,1.619,0,0,0,2.564,0A2.427,2.427,0,0,0,910.374,2942.24Zm-1.1.21c0,0.57-.17.85-0.525,0.85s-0.525-.28-0.525-0.85v-2.58c0-.57.17-0.85,0.525-0.85s0.525,0.28.525,0.85v2.58Zm5.168,1.77v-6.12h-1.1v4.68a0.96,0.96,0,0,1-.694.52,0.254,0.254,0,0,1-.258-0.26,2.686,2.686,0,0,1-.013-0.43v-4.51h-1.1v4.84a3.13,3.13,0,0,0,.1.91,0.679,0.679,0,0,0,.709.46,1.779,1.779,0,0,0,1.256-.75v0.66h1.1Zm3.251,3.14a2.277,2.277,0,0,0-1.947-1.78,91.075,91.075,0,0,0-13.487,0,2.276,2.276,0,0,0-1.946,1.78,29.414,29.414,0,0,0,0,8.6,2.286,2.286,0,0,0,1.946,1.79,91.088,91.088,0,0,0,13.488,0,2.287,2.287,0,0,0,1.946-1.79A29.6,29.6,0,0,0,917.693,2947.36Zm-12.561,1.24h-1.3v7h-1.211v-7h-1.28v-1.14h3.794v1.14Zm3.289,7h-1.09v-0.66a1.732,1.732,0,0,1-1.243.74,0.665,0.665,0,0,1-.7-0.45,3.1,3.1,0,0,1-.095-0.9v-4.8h1.087V2954a3.269,3.269,0,0,0,.011.43,0.245,0.245,0,0,0,.254.25,0.958,0.958,0,0,0,.688-0.51v-4.64h1.09v6.07Zm4.134-1.82a4.879,4.879,0,0,1-.11,1.22,0.862,0.862,0,0,1-.87.68,1.487,1.487,0,0,1-1.124-.67v0.59h-1.089v-8.14h1.089v2.66a1.463,1.463,0,0,1,1.124-.66,0.862,0.862,0,0,1,.87.68,4.771,4.771,0,0,1,.11,1.22v2.42Zm4.107-1.01h-2.176v1.07c0,0.56.182,0.84,0.556,0.84a0.465,0.465,0,0,0,.486-0.44,6.985,6.985,0,0,0,.024-0.74h1.11v0.16c0,0.35-.013.59-0.023,0.71a1.541,1.541,0,0,1-.254.65,1.5,1.5,0,0,1-1.316.66,1.563,1.563,0,0,1-1.318-.62,2.367,2.367,0,0,1-.349-1.43v-2.12a2.388,2.388,0,0,1,.336-1.43,1.555,1.555,0,0,1,1.3-.62,1.518,1.518,0,0,1,1.284.62,2.417,2.417,0,0,1,.336,1.43v1.26Zm-5.669-2.32a0.771,0.771,0,0,0-.542.26v3.7a0.748,0.748,0,0,0,.542.27c0.314,0,.474-0.27.474-0.82v-2.58C911.467,2950.73,911.307,2950.45,910.993,2950.45Zm4.039,0q-0.546,0-.546.84v0.56h1.088v-0.56C915.574,2950.73,915.392,2950.45,915.032,2950.45Z" transform="translate(-900 -2936)"/>
</svg>
